# 3ds Max Wavefront OBJ Exporter v0.97b - (c)2007 guruware
# File Created: 27.01.2013 01:06:44

mtllib Missile.mtl

#
# object Cylinder01
#

v  -245.6945 -22.1185 -38.3104
v  -232.9403 -17.6189 -30.5476
v  -232.9403 -35.2556 0.0000
v  -245.6945 -44.2370 0.0000
v  -245.6945 22.1185 -38.3104
v  -232.9403 17.6545 -30.5476
v  -245.6945 44.2370 0.0000
v  -232.9403 35.2912 0.0000
v  -245.6945 22.1185 38.3104
v  -232.9403 17.6545 30.5477
v  -245.6945 -22.1185 38.3104
v  -232.9403 -17.6189 30.5477
v  -52.2927 -47.4838 0.0000
v  -52.2927 -23.7419 -41.1222
v  -12.1345 -19.0170 -30.8491
v  -12.1345 -36.8277 0.0000
v  -52.2927 23.7419 -41.1222
v  -12.1345 16.6044 -30.8491
v  -52.2927 47.4838 0.0000
v  -12.1346 34.4151 0.0000
v  -52.2927 23.7419 41.1222
v  -12.1345 16.6044 30.8491
v  -52.2927 -23.7419 41.1222
v  -12.1345 -19.0170 30.8491
v  200.1614 -17.1375 -28.2002
v  200.1614 -33.4189 0.0000
v  200.1614 15.4252 -28.2002
v  200.1614 31.7066 0.0000
v  200.1614 15.4252 28.2002
v  200.1614 -17.1375 28.2002
v  223.4253 -13.3581 -20.2554
v  223.4253 -25.0526 0.0000
v  223.4253 10.0308 -20.2554
v  223.4253 21.7253 0.0000
v  223.4253 10.0308 20.2554
v  223.4253 -13.3581 20.2554
v  241.2555 -3.4111 0.0000
v  -231.2559 -23.2873 -41.1573
v  -231.2559 -47.0495 0.0000
v  -231.2559 24.2371 -41.1573
v  -231.2560 47.9993 0.0000
v  -231.2559 24.2371 41.1573
v  -231.2559 -23.2873 41.1573
v  61.1514 -6.6926 0.0430
v  142.6734 0.0353 -36.8534
v  142.6734 0.0353 36.9394
v  61.1514 6.7631 0.0430
v  61.3251 0.0353 -68.9059
v  61.3251 0.0353 68.9919
v  -218.5139 -6.6926 0.0430
v  -74.0474 0.0353 -58.8808
v  -74.0474 0.0353 58.9667
v  -218.5139 6.7631 0.0430
v  -218.5139 0.0353 -111.7168
v  -175.1329 0.0353 -108.4208
v  -175.1329 0.0353 108.5068
v  -218.5139 0.0353 111.8027
v  61.1514 0.0353 6.7708
v  142.6734 -36.8611 0.0430
v  142.6734 36.9316 0.0430
v  61.1514 0.0353 -6.6848
v  61.3251 -68.9137 0.0430
v  61.3251 68.9841 0.0430
v  -218.5139 0.0353 6.7708
v  -74.0474 -58.8885 0.0430
v  -74.0474 58.9590 0.0430
v  -218.5139 0.0353 -6.6848
v  -218.5139 -111.7245 0.0430
v  -175.1329 -108.4286 0.0430
v  -175.1329 108.4991 0.0430
v  -218.5139 111.7950 0.0430
# 71 vertices

vn 0.9585 -0.1427 -0.2469
vn -0.2047 -0.4903 -0.8472
vn -0.2041 -0.9789 -0.0000
vn 0.9585 -0.2849 -0.0000
vn 0.9583 0.1428 -0.2475
vn -0.2060 0.4885 -0.8479
vn 0.9582 0.2860 0.0000
vn -0.2066 0.9784 0.0000
vn 0.9583 0.1428 0.2475
vn -0.2060 0.4885 0.8479
vn 0.9585 -0.1427 0.2469
vn -0.2047 -0.4903 0.8472
vn 0.3842 -0.9232 0.0000
vn 0.3971 -0.4563 -0.7963
vn 0.5458 -0.4324 -0.7178
vn 0.5334 -0.8459 -0.0000
vn 0.4201 0.4557 -0.7848
vn 0.5697 0.3985 -0.7187
vn 0.4304 0.9026 0.0000
vn 0.5812 0.8138 0.0000
vn 0.4201 0.4557 0.7848
vn 0.5697 0.3985 0.7187
vn 0.3971 -0.4563 0.7963
vn 0.5458 -0.4324 0.7178
vn 0.4789 -0.4344 -0.7628
vn 0.4736 -0.8808 0.0000
vn 0.4879 0.4406 -0.7536
vn 0.4916 0.8708 0.0000
vn 0.4879 0.4406 0.7536
vn 0.4789 -0.4344 0.7628
vn 0.9256 -0.1990 -0.3220
vn 0.9201 -0.3916 0.0000
vn 0.9356 0.1678 -0.3107
vn 0.9401 0.3409 0.0000
vn 0.9356 0.1678 0.3107
vn 0.9256 -0.1990 0.3220
vn 0.9999 -0.0142 0.0000
vn -1.0000 -0.0000 -0.0000
vn -1.0000 -0.0000 0.0000
vn -1.0000 0.0000 -0.0000
vn -0.6033 -0.3963 -0.6921
vn -0.6055 -0.7958 -0.0000
vn -0.5988 0.4029 -0.6922
vn -0.5966 0.8026 0.0000
vn -0.5988 0.4029 0.6922
vn -0.6033 -0.3963 0.6921
vn 0.3158 -0.9488 -0.0000
vn 0.2127 -0.9739 -0.0792
vn 0.2127 -0.9739 0.0792
vn 0.2127 0.9739 0.0792
vn 0.2127 0.9739 -0.0792
vn 0.3158 0.9488 0.0000
vn 0.1797 -0.9791 -0.0954
vn 0.1797 -0.9791 0.0954
vn 0.1797 0.9791 -0.0954
vn 0.1797 0.9791 0.0954
vn -1.0000 0.0000 0.0000
vn -1.0000 0.0000 0.0005
vn -1.0000 0.0000 -0.0005
vn 0.1829 -0.9831 -0.0000
vn 0.1376 -0.9896 -0.0424
vn 0.1376 -0.9896 0.0424
vn 0.1376 0.9896 0.0424
vn 0.1376 0.9896 -0.0424
vn 0.1829 0.9831 0.0000
vn 0.0218 -0.9980 -0.0601
vn 0.0426 -0.9974 -0.0583
vn 0.0426 -0.9974 0.0583
vn 0.0218 -0.9980 0.0601
vn 0.0426 0.9974 -0.0583
vn 0.0218 0.9980 -0.0601
vn 0.0218 0.9980 0.0601
vn 0.0426 0.9974 0.0583
vn 0.3158 -0.0000 0.9488
vn 0.2127 -0.0792 0.9739
vn 0.2127 0.0792 0.9739
vn 0.2127 0.0792 -0.9739
vn 0.2127 -0.0792 -0.9739
vn 0.3158 0.0000 -0.9488
vn 0.1797 -0.0954 0.9791
vn 0.1797 0.0954 0.9791
vn 0.1797 -0.0954 -0.9791
vn 0.1797 0.0954 -0.9791
vn -1.0000 0.0005 -0.0000
vn -1.0000 -0.0005 -0.0000
vn 0.1829 -0.0000 0.9831
vn 0.1376 -0.0424 0.9896
vn 0.1376 0.0424 0.9896
vn 0.1376 0.0424 -0.9896
vn 0.1376 -0.0424 -0.9896
vn 0.1829 0.0000 -0.9831
vn 0.0218 -0.0601 0.9980
vn 0.0426 -0.0583 0.9974
vn 0.0426 0.0583 0.9974
vn 0.0218 0.0601 0.9980
vn 0.0426 -0.0583 -0.9974
vn 0.0218 -0.0601 -0.9980
vn 0.0218 0.0601 -0.9980
vn 0.0426 0.0583 -0.9974
# 99 vertex normals

vt 0.9167 0.0000 1.0000
vt 0.9167 0.1000 1.0000
vt 0.7500 0.1000 1.0000
vt 0.7500 0.0000 1.0000
vt 1.0833 0.0000 1.0000
vt 1.0833 0.1000 1.0000
vt 0.2500 0.0000 1.0000
vt 0.2500 0.1000 1.0000
vt 0.0833 0.1000 1.0000
vt 0.0833 0.0000 1.0000
vt 0.4167 0.0000 1.0000
vt 0.4167 0.1000 1.0000
vt 0.5833 0.0000 1.0000
vt 0.5833 0.1000 1.0000
vt 0.7500 0.2000 1.0000
vt 0.9167 0.2000 1.0000
vt 0.9167 0.4000 1.0000
vt 0.7500 0.4000 1.0000
vt 1.0833 0.2000 1.0000
vt 1.0833 0.4000 1.0000
vt 0.0833 0.2000 1.0000
vt 0.2500 0.2000 1.0000
vt 0.2500 0.4000 1.0000
vt 0.0833 0.4000 1.0000
vt 0.4167 0.2000 1.0000
vt 0.4167 0.4000 1.0000
vt 0.5833 0.2000 1.0000
vt 0.5833 0.4000 1.0000
vt 0.9167 0.6000 1.0000
vt 0.7500 0.6000 1.0000
vt 1.0833 0.6000 1.0000
vt 0.2500 0.6000 1.0000
vt 0.0833 0.6000 1.0000
vt 0.4167 0.6000 1.0000
vt 0.5833 0.6000 1.0000
vt 0.9167 0.8000 1.0000
vt 0.7500 0.8000 1.0000
vt 1.0833 0.8000 1.0000
vt 0.2500 0.8000 1.0000
vt 0.0833 0.8000 1.0000
vt 0.4167 0.8000 1.0000
vt 0.5833 0.8000 1.0000
vt 0.8333 1.0000 1.0000
vt 0.2500 1.0000 1.0000
vt 0.9330 0.2500 -0.2500
vt 0.5000 0.0000 -0.2500
vt 0.0670 0.2500 -0.2500
vt 0.5000 1.0000 -0.2500
vt 0.0670 0.7500 -0.2500
vt 0.9330 0.7500 -0.2500
vt 0.9167 0.1500 1.0000
vt 0.7500 0.1500 1.0000
vt 1.0833 0.1500 1.0000
vt 0.2500 0.1500 1.0000
vt 0.0833 0.1500 1.0000
vt 0.4167 0.1500 1.0000
vt 0.5833 0.1500 1.0000
vt 1.0000 0.5000 0.0000
vt 0.0000 0.6667 0.0000
vt 0.0000 0.3333 0.0000
vt 1.0000 0.3333 0.0000
vt 1.0000 0.6667 0.0000
vt 0.0000 0.5000 0.0000
vt 0.5000 1.0000 0.0000
vt 0.5000 0.0000 0.0000
vt 1.0000 1.0000 0.0000
vt 0.0000 1.0000 0.0000
vt 0.0000 0.0000 0.0000
vt 1.0000 0.0000 0.0000
# 69 texture coords

g Cylinder01
usemtl 01___Default
s 8
f 1/1/1 2/2/2 3/3/3 4/4/4 
f 5/5/5 6/6/6 2/2/2 1/1/1 
f 7/7/7 8/8/8 6/9/6 5/10/5 
f 9/11/9 10/12/10 8/8/8 7/7/7 
f 11/13/11 12/14/12 10/12/10 9/11/9 
f 4/4/4 3/3/3 12/14/12 11/13/11 
f 13/15/13 14/16/14 15/17/15 16/18/16 
f 14/16/14 17/19/17 18/20/18 15/17/15 
f 17/21/17 19/22/19 20/23/20 18/24/18 
f 19/22/19 21/25/21 22/26/22 20/23/20 
f 21/25/21 23/27/23 24/28/24 22/26/22 
f 23/27/23 13/15/13 16/18/16 24/28/24 
f 16/18/16 15/17/15 25/29/25 26/30/26 
f 15/17/15 18/20/18 27/31/27 25/29/25 
f 18/24/18 20/23/20 28/32/28 27/33/27 
f 20/23/20 22/26/22 29/34/29 28/32/28 
f 22/26/22 24/28/24 30/35/30 29/34/29 
f 24/28/24 16/18/16 26/30/26 30/35/30 
f 26/30/26 25/29/25 31/36/31 32/37/32 
f 25/29/25 27/31/27 33/38/33 31/36/31 
f 27/33/27 28/32/28 34/39/34 33/40/33 
f 28/32/28 29/34/29 35/41/35 34/39/34 
f 29/34/29 30/35/30 36/42/36 35/41/35 
f 30/35/30 26/30/26 32/37/32 36/42/36 
f 32/37/32 31/36/31 37/43/37 
f 31/36/31 33/38/33 37/43/37 
f 33/40/33 34/39/34 37/44/37 
f 34/39/34 35/41/35 37/44/37 
f 35/41/35 36/42/36 37/44/37 
f 36/42/36 32/37/32 37/43/37 
s 1
f 9/45/38 7/46/38 5/47/39 4/48/39 
f 5/47/39 1/49/39 4/48/39 
f 11/50/40 9/45/38 4/48/39 
s 8
f 38/51/41 39/52/42 3/3/3 2/2/2 
f 40/53/43 38/51/41 2/2/2 6/6/6 
f 41/54/44 40/55/43 6/9/6 8/8/8 
f 42/56/45 41/54/44 8/8/8 10/12/10 
f 43/57/46 42/56/45 10/12/10 12/14/12 
f 39/52/42 43/57/46 12/14/12 3/3/3 
f 14/16/14 13/15/13 39/52/42 38/51/41 
f 17/19/17 14/16/14 38/51/41 40/53/43 
f 19/22/19 17/21/17 40/55/43 41/54/44 
f 21/25/21 19/22/19 41/54/44 42/56/45 
f 23/27/23 21/25/21 42/56/45 43/57/46 
f 13/15/13 23/27/23 43/57/46 39/52/42 
s 2
f 44/58/47 45/59/48 46/60/49 
s 4
f 46/61/50 45/62/51 47/63/52 
s 2
f 44/58/47 48/64/53 45/59/48 
f 46/60/49 49/65/54 44/58/47 
s 4
f 45/62/51 48/64/55 47/63/52 
f 47/63/52 49/65/56 46/61/50 
s 64
f 44/65/57 49/58/58 47/64/40 
f 47/64/40 48/63/59 44/65/57 
s 2
f 50/58/60 51/59/61 52/60/62 
s 4
f 52/61/63 51/62/64 53/63/65 
s 2
f 50/58/60 54/66/66 55/67/67 51/59/61 
f 56/68/68 57/69/69 50/58/60 52/60/62 
s 4
f 55/66/70 54/67/71 53/63/65 51/62/64 
f 53/63/65 57/68/72 56/69/73 52/61/63 
s 64
f 50/65/40 57/58/40 53/64/40 
f 53/64/40 54/63/40 50/65/40 
s 2
f 58/58/74 59/59/75 60/60/76 
s 4
f 60/61/77 59/62/78 61/63/79 
s 2
f 58/58/74 62/64/80 59/59/75 
f 60/60/76 63/65/81 58/58/74 
s 4
f 59/62/78 62/64/82 61/63/79 
f 61/63/79 63/65/83 60/61/77 
s 64
f 58/65/38 63/58/84 61/64/38 
f 61/64/38 62/63/85 58/65/38 
s 2
f 64/58/86 65/59/87 66/60/88 
s 4
f 66/61/89 65/62/90 67/63/91 
s 2
f 64/58/86 68/66/92 69/67/93 65/59/87 
f 70/68/94 71/69/95 64/58/86 66/60/88 
s 4
f 69/66/96 68/67/97 67/63/91 65/62/90 
f 67/63/91 71/68/98 70/69/99 66/61/89 
s 64
f 64/65/40 71/58/40 67/64/40 
f 67/64/40 68/63/40 64/65/40 
# 45 polygons - 32 triangles

